<?xml version="1.0" standalone="no"?><!DOCTYPE svg PUBLIC "-//W3C//DTD SVG 1.1//EN" "http://www.w3.org/Graphics/SVG/1.1/DTD/svg11.dtd"><svg t="1590025949939" class="icon" viewBox="0 0 1024 1024" version="1.1" xmlns="http://www.w3.org/2000/svg" p-id="3566" xmlns:xlink="http://www.w3.org/1999/xlink" width="200" height="200"><defs><style type="text/css"></style></defs><path d="M512 896c-213.333333 0-384-170.666667-384-384s170.666667-384 384-384 384 170.666667 384 384S725.333333 896 512 896zM512 213.333333c-166.4 0-298.666667 132.266667-298.666667 298.666667s132.266667 298.666667 298.666667 298.666667 298.666667-132.266667 298.666667-298.666667S678.4 213.333333 512 213.333333zM512 682.666667c-93.866667 0-170.666667-76.8-170.666667-170.666667s76.8-170.666667 170.666667-170.666667 170.666667 76.8 170.666667 170.666667S605.866667 682.666667 512 682.666667zM512 426.666667c-46.933333 0-85.333333 38.4-85.333333 85.333333s38.4 85.333333 85.333333 85.333333 85.333333-38.4 85.333333-85.333333S558.933333 426.666667 512 426.666667z" p-id="3567" ></path><path d="M512 1024c-25.6 0-42.666667-17.066667-42.666667-42.666667l0-341.333333c0-25.6 17.066667-42.666667 42.666667-42.666667s42.666667 17.066667 42.666667 42.666667l0 341.333333C554.666667 1006.933333 537.6 1024 512 1024z" p-id="3568" ></path><path d="M512 426.666667c-25.6 0-42.666667-17.066667-42.666667-42.666667L469.333333 42.666667c0-25.6 17.066667-42.666667 42.666667-42.666667s42.666667 17.066667 42.666667 42.666667l0 341.333333C554.666667 409.6 537.6 426.666667 512 426.666667z" p-id="3569" ></path><path d="M384 554.666667 42.666667 554.666667c-25.6 0-42.666667-17.066667-42.666667-42.666667s17.066667-42.666667 42.666667-42.666667l341.333333 0c25.6 0 42.666667 17.066667 42.666667 42.666667S409.6 554.666667 384 554.666667z" p-id="3570" ></path><path d="M981.333333 554.666667l-341.333333 0c-25.6 0-42.666667-17.066667-42.666667-42.666667s17.066667-42.666667 42.666667-42.666667l341.333333 0c25.6 0 42.666667 17.066667 42.666667 42.666667S1006.933333 554.666667 981.333333 554.666667z" p-id="3571" ></path></svg>