<?xml version="1.0" standalone="no"?><!DOCTYPE svg PUBLIC "-//W3C//DTD SVG 1.1//EN" "http://www.w3.org/Graphics/SVG/1.1/DTD/svg11.dtd"><svg t="1590025969699" class="icon" viewBox="0 0 1024 1024" version="1.1" xmlns="http://www.w3.org/2000/svg" p-id="3983" xmlns:xlink="http://www.w3.org/1999/xlink" width="200" height="200"><defs><style type="text/css"></style></defs><path d="M928 512c-19.2 0-32 12.8-32 32v256H128v-256c0-19.2-12.8-32-32-32s-32 12.8-32 32v252.8C64 832 92.8 864 128 864h768c35.2 0 64-32 64-67.2V544c0-19.2-12.8-32-32-32z" p-id="3984" ></path><path d="M726.4 425.6c-12.8-12.8-32-12.8-44.8 0L544 563.2V192c0-19.2-12.8-32-32-32s-32 12.8-32 32v371.2l-137.6-137.6c-12.8-12.8-32-12.8-44.8 0s-12.8 32 0 44.8l192 192c3.2 3.2 6.4 6.4 9.6 6.4 3.2 3.2 9.6 3.2 12.8 3.2s9.6 0 12.8-3.2c3.2-3.2 6.4-3.2 9.6-6.4l192-192c12.8-12.8 12.8-32 0-44.8z" p-id="3985" ></path></svg>