<?xml version="1.0" standalone="no"?><!DOCTYPE svg PUBLIC "-//W3C//DTD SVG 1.1//EN" "http://www.w3.org/Graphics/SVG/1.1/DTD/svg11.dtd"><svg t="1590025994613" class="icon" viewBox="0 0 1024 1024" version="1.1" xmlns="http://www.w3.org/2000/svg" p-id="4395" xmlns:xlink="http://www.w3.org/1999/xlink" width="200" height="200"><defs><style type="text/css"></style></defs><path d="M749.248 704H864a32 32 0 1 0 0-64H672a32 32 0 0 0-32 32v192a32 32 0 1 0 64 0v-114.752l137.36 137.36a32 32 0 1 0 45.232-45.264L749.248 704zM320 749.248V864a32 32 0 1 0 64 0V672a32 32 0 0 0-32-32H160a32 32 0 1 0 0 64h114.752l-137.36 137.36a32 32 0 1 0 45.264 45.232L320 749.248zM749.248 320H864a32 32 0 1 1 0 64H672a32 32 0 0 1-32-32V160a32 32 0 1 1 64 0v114.752l137.36-137.36a32 32 0 1 1 45.232 45.264L749.248 320zM320 274.752V160a32 32 0 1 1 64 0v192a32 32 0 0 1-32 32H160a32 32 0 1 1 0-64h114.752l-137.36-137.36a32 32 0 1 1 45.264-45.232L320 274.752z" p-id="4396" ></path></svg>