<svg xmlns="http://www.w3.org/2000/svg" xmlns:xlink="http://www.w3.org/1999/xlink" t="1558086239535" class="icon" style="" viewBox="0 0 1024 1024" version="1.1" p-id="3241" width="200" height="200"><defs><style type="text/css"/></defs><path d="M426.865423 445.180382h-34.048213c-10.214464 0-17.024106-6.809643-17.024107-17.024106s6.809643-17.024106 17.024107-17.024106h34.048213c10.214464 0 17.024106 6.809643 17.024106 17.024106s-6.809643 17.024106-17.024106 17.024106zM631.154699 445.180382h-34.048212c-10.214464 0-17.024106-6.809643-17.024107-17.024106s6.809643-17.024106 17.024107-17.024106h34.048212c10.214464 0 17.024106 6.809643 17.024107 17.024106s-6.809643 17.024106-17.024107 17.024106z" fill="#fff" p-id="3242"/><path d="M511.985955 751.614298c-108.954281 0-211.098919-81.715711-245.147132-204.289277-34.048213 0-61.286783-44.262677-61.286784-102.144639 0-47.667498 17.024106-85.120532 44.262677-98.739817v-6.809642C249.814716 206.842893 290.672571 179.604323 300.887035 172.79468c6.809643-3.404821 17.024106 0 23.833749 10.214464 3.404821 10.214464 0 17.024106-6.809642 23.833749 0 0-34.048213 20.428928-34.048213 132.78803V360.05985c0 3.404821 0 10.214464-3.404821 13.619285s-10.214464 3.404821-13.619285 3.404822c-13.619285 3.404821-27.23857 27.23857-27.238571 68.096425s17.024106 68.096426 27.238571 68.096426h3.404821c3.404821-3.404821 10.214464-3.404821 17.024106 0s10.214464 6.809643 10.214464 10.214464c23.833749 112.359102 115.763924 194.074813 214.503741 194.074813s190.669992-81.715711 217.908562-194.074813c0-6.809643 3.404821-10.214464 10.214463-10.214464 3.404821-3.404821 10.214464 0 17.024107 0h3.404821c10.214464 0 27.23857-27.23857 27.23857-68.096426s-13.619285-64.691604-23.833749-68.096425h-3.404821c-3.404821 0-10.214464-3.404821-13.619285-6.809643-3.404821-3.404821-6.809643-10.214464-3.404821-13.619285v-6.809642-13.619286c0-112.359102-47.667498-132.78803-47.667498-132.78803-10.214464-3.404821-13.619285-13.619285-10.214464-20.428927 3.404821-10.214464 13.619285-13.619285 20.428928-10.214464 3.404821 0 71.501247 23.833749 71.501247 163.431421v10.214464c27.23857 13.619285 44.262677 51.072319 44.262676 98.739817 0 57.881962-27.23857 102.144638-61.286783 102.144639-37.453034 122.573566-139.597672 204.289277-248.551953 204.289277z" fill="#fff" p-id="3243"/><path d="M324.720784 649.469659c-51.072319 0-88.525353-30.643392-108.954281-54.47714-3.404821 6.809643-10.214464 13.619285-17.024106 17.024106-27.23857 10.214464-54.47714-17.024106-71.501247-37.453034-37.453034-40.857855-40.857855-81.715711-30.643391-119.168745-40.857855 23.833749-40.857855 23.833749-51.07232 20.428928-6.809643-3.404821-10.214464-6.809643-10.214464-13.619285 0-68.096426 37.453034-119.168745 68.096426-153.216958-57.881962 0-57.881962 0-64.691604-6.809642 0 0-3.404821-6.809643-3.404822-10.214464C35.310975 186.413965 147.670078 138.746467 205.552039 138.746467c37.453034 0 85.120532 13.619285 108.954281 30.643392 30.643392-6.809643 112.359102-30.643392 197.479635-30.643392s156.621779 23.833749 183.860349 30.643392c27.23857-20.428928 95.334996-30.643392 122.573566-30.643392 57.881962 0 170.241064 47.667498 170.241064 153.216958 0 6.809643-3.404821 10.214464-6.809643 13.619285-3.404821 3.404821-6.809643 6.809643-34.048212 0 20.428928 27.23857 40.857855 68.096426 40.857855 122.573566 0 6.809643-3.404821 10.214464-6.809643 13.619285-6.809643 6.809643-10.214464 6.809643-78.310889-17.024106 17.024106 44.262677 23.833749 108.954281-20.428928 160.0266-17.024106 17.024106-37.453034 40.857855-61.286783 30.643391-6.809643-3.404821-13.619285-10.214464-17.024106-20.428927-20.428928 20.428928-47.667498 37.453034-88.525354 37.453034-10.214464 0-17.024106-6.809643-17.024106-17.024107s6.809643-17.024106 17.024106-17.024106c68.096426 0 85.120532-71.501247 85.120532-71.501247 3.404821-10.214464 10.214464-13.619285 20.428928-13.619285 10.214464 3.404821 13.619285 10.214464 13.619285 20.428928-3.404821 17.024106-3.404821 40.857855 0 47.667498 3.404821-3.404821 10.214464-6.809643 20.428928-20.428928 61.286783-68.096426 0-156.621779 0-156.621779-3.404821-6.809643-3.404821-13.619285 0-20.428928 3.404821-6.809643 13.619285-6.809643 20.428928-6.809642 27.23857 10.214464 57.881962 20.428928 78.310889 27.23857-10.214464-78.310889-71.501247-112.359102-74.906068-115.763924-6.809643-3.404821-10.214464-13.619285-6.809643-20.428927s10.214464-13.619285 20.428928-10.214464c20.428928 6.809643 47.667498 10.214464 61.286783 13.619285-13.619285-68.096426-91.930175-98.739817-136.192851-98.739817-44.262677 0-91.930175 17.024106-102.144639 23.833749 0 3.404821-3.404821 3.404821-6.809642 6.809642-6.809643 3.404821-10.214464 3.404821-17.024106 3.404822 0 0-85.120532-34.048213-180.455528-34.048213S314.50632 206.842893 314.50632 206.842893c-6.809643 0-13.619285 0-17.024106-3.404822l-6.809643-6.809642C283.862929 186.413965 246.409895 172.79468 205.552039 172.79468c-44.262677 0-125.978387 30.643392-136.192851 102.144638h81.715711c10.214464 0 17.024106 3.404821 20.428928 13.619285 0 6.809643 0 13.619285-6.809643 17.024107 0 0-74.906068 47.667498-91.930174 125.978387 17.024106-10.214464 37.453034-23.833749 54.47714-34.048213 6.809643-3.404821 17.024106-3.404821 20.428928 3.404822 6.809643 6.809643 6.809643 17.024106 0 23.833749-3.404821 3.404821-57.881962 64.691604 0 129.383208 23.833749 27.23857 34.048213 27.23857 34.048213 27.238571 3.404821-3.404821 3.404821-20.428928 3.404821-30.643392 0-6.809643 3.404821-17.024106 13.619285-17.024106 6.809643-3.404821 17.024106 3.404821 20.428928 10.214464 0 0 34.048213 74.906068 102.144638 74.906068 10.214464 0 17.024106 6.809643 17.024106 17.024106s-3.404821 13.619285-13.619285 13.619285z" fill="#fff" p-id="3244"/><path d="M511.985955 683.517872c-68.096426 0-119.168745-44.262677-119.168745-102.144638 0-10.214464 6.809643-17.024106 17.024106-17.024107s17.024106 6.809643 17.024107 17.024107c0 40.857855 34.048213 68.096426 85.120532 68.096425 47.667498 0 85.120532-27.23857 85.120532-68.096425 0-10.214464 6.809643-17.024106 17.024106-17.024107s17.024106 6.809643 17.024106 17.024107c0 57.881962-51.072319 102.144638-119.168744 102.144638zM358.768997 394.108063c-3.404821 0-6.809643 0-10.214464-3.404821-6.809643-6.809643-6.809643-17.024106-3.404821-23.833749 3.404821-3.404821 20.428928-23.833749 47.667498-23.833749 10.214464 0 17.024106 6.809643 17.024106 17.024106s-6.809643 17.024106-17.024106 17.024107-20.428928 10.214464-20.428928 10.214464c-3.404821 3.404821-10.214464 6.809643-13.619285 6.809642zM665.202912 394.108063c-3.404821 0-10.214464-3.404821-13.619285-6.809642 0 0-10.214464-10.214464-20.428928-10.214464s-17.024106-6.809643-17.024106-17.024107 6.809643-17.024106 17.024106-17.024106c27.23857 0 44.262677 20.428928 47.667498 23.833749 6.809643 6.809643 3.404821 17.024106-3.404821 23.833749-3.404821 3.404821-6.809643 3.404821-10.214464 3.404821zM699.251125 206.842893c-10.214464 0-17.024106-6.809643-17.024106-17.024107 0-47.667498-102.144638-115.763924-170.241064-149.812136-74.906068 34.048213-187.26517 105.54946-187.265171 149.812136 0 10.214464-6.809643 17.024106-17.024106 17.024107s-17.024106-6.809643-17.024107-17.024107C290.672571 104.698254 481.342563 12.76808 505.176312 2.553616c3.404821-3.404821 10.214464-3.404821 13.619285 0 20.428928 10.214464 197.479634 102.144638 197.479634 187.26517 0 10.214464-6.809643 17.024106-17.024106 17.024107zM1005.68504 1024H18.286869c-10.214464 0-17.024106-6.809643-17.024106-17.024106v-40.857856c0-132.78803 98.739817-183.860349 183.860349-214.50374l102.144638-34.048213c6.809643-3.404821 13.619285 0 17.024107 3.404821 54.47714 57.881962 136.192851 95.334996 207.694098 95.334996s156.621779-37.453034 207.694098-95.334996c3.404821-3.404821 13.619285-6.809643 17.024106-3.404821l91.930175 34.048213c125.978387 44.262677 190.669992 119.168745 190.669991 224.718204v30.643392c3.404821 10.214464-3.404821 17.024106-13.619285 17.024106zM35.310975 989.951787h953.349959v-13.619285c0-88.525353-57.881962-153.216958-166.836243-190.669992l-81.715711-30.643391C678.822197 816.305902 590.296844 853.758936 511.985955 853.758936s-166.836243-37.453034-224.718205-98.739817l-91.930174 30.643391C82.978473 823.115544 35.310975 877.592685 35.310975 966.118038v23.833749z" fill="#fff" p-id="3245"/><path d="M147.670078 1013.785536c-3.404821 0-6.809643 0-10.214464-3.404821-6.809643-6.809643-6.809643-17.024106 0-23.833749 74.906068-81.715711 20.428928-194.074813 20.428928-194.074813-3.404821-6.809643 0-17.024106 6.809642-23.833749 6.809643-3.404821 17.024106 0 23.833749 6.809643 3.404821 6.809643 64.691604 132.78803-23.833749 231.527847-10.214464 6.809643-13.619285 6.809643-17.024106 6.809642zM869.492189 1024c-3.404821 0-10.214464-3.404821-13.619285-6.809643-81.715711-95.334996-3.404821-234.932668-3.404821-241.74231 3.404821-6.809643 13.619285-10.214464 23.833749-6.809643s10.214464 13.619285 6.809642 23.833749c0 0-68.096426 122.573566-3.404821 200.884455 6.809643 6.809643 3.404821 17.024106-3.404821 23.833749 0 6.809643-3.404821 6.809643-6.809643 6.809643z" fill="#fff" p-id="3246"/><path d="M511.985955 921.855362c-85.120532 0-149.812136-23.833749-190.669992-64.691605C270.243644 802.686617 273.648465 737.995012 273.648465 734.590191c0-10.214464 10.214464-17.024106 17.024106-17.024106 10.214464 0 17.024106 10.214464 17.024107 17.024106 0 0-3.404821 54.47714 37.453034 98.739817 34.048213 37.453034 91.930175 54.47714 166.836243 54.477141s129.383209-17.024106 163.431421-54.477141c40.857855-44.262677 40.857855-95.334996 40.857855-98.739817 0-10.214464 6.809643-17.024106 17.024107-17.024106s17.024106 6.809643 17.024106 17.024106c0 3.404821 3.404821 68.096426-47.667498 122.573566-40.857855 40.857855-105.54946 64.691604-190.669991 64.691605z" fill="#fff" p-id="3247"/><path d="M511.985955 513.276808m-34.048213 0a34.048213 34.048213 0 1 0 68.096425 0 34.048213 34.048213 0 1 0-68.096425 0Z" fill="#fff" p-id="3248"/></svg>