<svg xmlns="http://www.w3.org/2000/svg" xmlns:xlink="http://www.w3.org/1999/xlink" t="1558086316707" class="icon" style="" viewBox="0 0 1024 1024" version="1.1" p-id="2173" width="200" height="200"><defs><style type="text/css"/></defs><path d="M15.637169 891.55318v83.580667c0 15.637169 65.206994 41.751241 140.265404 12.822479a321.656563 321.656563 0 0 0 13.057036-96.403146zM992.412919 884.203711q16.18447 78.811331 16.18447 95.152172c0 16.419027-67.787127 45.973276-142.063679 16.419027a1068.175002 1068.175002 0 0 1-25.879514-111.571199zM512.117279 174.432618l56.215622 45.425976 118.998854-107.114607-16.497213-68.09987-158.717263 129.788501zM504.845995 181.469344l-44.644117 45.660533-130.648545-114.073146 19.155532-68.412614 156.13713 136.825227z" fill="#DFEEDA" p-id="2174"/><path d="M910.083225 1024c-20.406505 0-39.092922-2.580133-49.178896-9.069558s-25.01947-15.637169-79.749561-333.462625c6.567611 149.56952 9.851416 251.367489 9.851417 303.986562a15.637169 15.637169 0 0 1-13.917081 15.637169 2439.398335 2439.398335 0 0 1-534.087501 0 15.637169 15.637169 0 0 1-13.91708-16.653585l30.492479-447.692143c-67.005268 351.367183-82.564251 439.951745-83.111552 449.177674 0 16.575399-20.484691 22.986638-27.208674 25.097656-30.883408 9.695045-118.920669 18.99916-143.627395-16.575399-4.534779-6.489425-11.415133-16.340841 3.440177-139.248988 8.209514-68.09987 21.735665-158.795449 37.841948-255.667711 6.254868-36.981904 61.766817-362.235016 87.724518-401.327937C158.013591 163.955715 218.920363 131.899519 320.561961 101.40704c1.641903-39.87478 11.727877-67.474383 30.727036-84.28434 33.85447-29.632435 293.275101-13.995266 320.561961-2.736505 22.986638 9.616859 24.003054 36.12186 24.863099 57.38841 0 7.818584 0.860044 22.517523 3.518363 25.723143h1.172787c39.562037 0 166.066733 70.36726 191.242575 97.185004 11.571505 8.913186 27.521417 53.635489 78.185844 396.793159 27.28686 186.864167 53.400932 383.814309 53.400932 393.431167a23.455753 23.455753 0 0 1-14.229824 20.406505c-17.044514 9.616859-62.157746 18.686417-99.921509 18.686417z m-31.274337-34.870886c18.608231 8.756815 92.728411 0.860044 113.291288-9.147744-3.674735-33.776285-26.035886-203.283195-50.977171-372.164618-47.536993-322.82935-64.737879-379.435901-69.585401-389.130946a14.464381 14.464381 0 0 1-2.423761-2.892876c-12.196992-16.419027-137.998015-86.864473-168.255937-86.864473-33.85447 0-35.18363-34.949072-35.965488-55.824693 0-9.695045-1.094602-27.755975-5.629381-29.632435-30.179736-12.431549-263.877224-18.764603-288.036649-2.658318-13.135222 11.649691-20.015576 36.043674-20.015576 72.24372a15.637169 15.637169 0 0 1-11.258762 15.011682c-123.846377 35.887302-165.675804 67.552569-179.045583 87.489959-30.257922 45.504161-142.063679 707.269146-128.850271 761.530122a46.364206 46.364206 0 0 0 25.254028 9.382301 202.735894 202.735894 0 0 0 88.506375-7.818585c2.736505-20.328319 18.295488-110.085668 106.48912-570.756661a15.637169 15.637169 0 0 1 15.637169-12.666107h15.871726a15.637169 15.637169 0 0 1 11.415133 4.925708 15.637169 15.637169 0 0 1 4.222036 11.806062l-38.076506 559.028786a2401.321829 2401.321829 0 0 0 498.278384 0c-0.781858-86.708101-8.365885-274.66687-22.517523-559.185157a15.715355 15.715355 0 0 1 31.274338-3.20562c73.260136 465.753073 100.546995 564.423608 110.476597 580.295335z m-846.518134-10.946019z m844.407116-756.682599z m0 0z m-5.551195-4.065664z m-535.573032-104.378101z" fill="#597BA0" p-id="2175"/><path d="M461.140108 240.499656l-134.401466-114.93319 20.32832-23.768497 113.916775 97.419562L669.818126 18.217302l20.484691 23.612125-229.162709 198.670229z" fill="#597BA0" p-id="2176"/><path d="M571.773078 240.8124L348.630679 49.178896l20.328319-23.690311 202.032221 173.416202L676.698481 100.859739l21.266549 22.908452L571.773078 240.8124zM15.637169 875.446896h153.32244v31.274338H15.637169zM833.382912 875.446896h160.593724v31.274338h-160.593724zM731.115828 913.992517a7.818584 7.818584 0 0 1-7.818584-7.818584c0-31.97801-4.925708-152.227838-14.542567-357.387493a7.826403 7.826403 0 0 1 15.637168-0.781859c9.616859 205.472398 14.542567 325.956784 14.542567 358.169352a7.818584 7.818584 0 0 1-7.818584 7.818584zM555.119493 972.710086c-11.884248 0-23.455753 0-35.652745-0.781858a7.818584 7.818584 0 0 1-7.818584-7.818585 7.818584 7.818584 0 0 1 7.818584-7.818584 798.981141 798.981141 0 0 0 144.643812-6.802168 7.89677 7.89677 0 0 1 2.189203 15.637168 810.005345 810.005345 0 0 1-111.18027 7.584027zM811.490876 213.056425a7.818584 7.818584 0 0 1-5.707567-2.423761c-6.880354-7.271284-27.28686-21.813851-85.300756-49.491639a7.818584 7.818584 0 1 1 6.723983-14.073452c48.944338 23.455753 78.185844 40.578453 89.991906 52.775444a7.818584 7.818584 0 0 1 0 11.024205 7.818584 7.818584 0 0 1-5.707566 2.189203z" fill="#597BA0" p-id="2177"/></svg>