<svg xmlns="http://www.w3.org/2000/svg" xmlns:xlink="http://www.w3.org/1999/xlink" t="1558086165687" class="icon" style="" viewBox="0 0 1202 1024" version="1.1" p-id="2325" width="234.765625" height="200"><defs><style type="text/css"/></defs><path d="M23.016085 977.96783h40.278148a23.016085 23.016085 0 1 1 0 46.03217H23.016085a23.016085 23.016085 0 0 1 0-46.03217z m1061.616914 0h94.94135a23.016085 23.016085 0 0 1 0 46.03217h-94.94135a23.016085 23.016085 0 0 1 0-46.03217z m-920.643394 0h831.456065a23.016085 23.016085 0 0 1 0 46.03217H163.989605a23.016085 23.016085 0 0 1 0-46.03217z" fill="#261D50" p-id="2326"/><path d="M519.904587 739.391726h166.866615l-14.385053 175.497647h-138.096509l-14.385053-175.497647z" fill="#FFFFFF" p-id="2327"/><path d="M528.895245 868.857203h148.166046l-12.773927 46.03217h-122.618192l-12.773927-46.03217z" fill="#FDD838" p-id="2328"/><path d="M681.909054 926.397415H522.608977l-16.269495-198.513732h191.839067z m-138.096509-23.016085h116.892941l12.500611-152.481562h-141.894163z" fill="#261D50" p-id="2329"/><path d="M401.386135 11.508042h689.605057a57.540212 57.540212 0 0 1 57.540212 57.540213v612.803259a57.540212 57.540212 0 0 1-57.540212 57.540212h-975.306596a57.540212 57.540212 0 0 1-57.540212-57.540212V69.048255a57.540212 57.540212 0 0 1 57.540212-57.540213h53.224697m76.456557 0h101.242003" fill="#FFFFFF" p-id="2330"/><path d="M369.940409 916.327878h466.794971v73.363771h-466.794971z" fill="#72C69C" p-id="2331"/><path d="M851.120433 1001.199691h-497.722835v-97.818361h497.722835z m-474.70675-23.016085h451.690665v-51.786191h-451.690665z" fill="#261D50" p-id="2332"/><path d="M1098.543345 195.636721V60.417223h-994.007165v631.503828h199.750847z m-766.723327-60.417223a11.508042 11.508042 0 1 1-11.508042 11.508043 11.508042 11.508042 0 0 1 11.508042-11.508043z m-41.716654 23.016085h-77.679286a8.631032 8.631032 0 0 0-8.631032 8.631032v137.765653a11.508042 11.508042 0 0 1-23.016085 0V166.866615a31.647117 31.647117 0 0 1 31.647117-31.647117h77.679286a11.508042 11.508042 0 0 1 0 23.016085zM525.543527 691.921051l572.999818-358.058355v-68.703013L415.584182 691.921051h109.959345zM864.930084 691.921051h233.613261V545.941533L864.930084 691.921051z" fill="#00B7D6" p-id="2333"/><path d="M1078.404271 701.990588h-952.290511a31.647117 31.647117 0 0 1-31.647117-31.647117V80.556297a31.647117 31.647117 0 0 1 31.647117-31.647117h952.290511a31.647117 31.647117 0 0 1 31.647116 31.647117v589.787174a31.647117 31.647117 0 0 1-31.647116 31.647117z m-952.290511-630.065323a8.631032 8.631032 0 0 0-8.631032 8.631032v589.787174a8.631032 8.631032 0 0 0 8.631032 8.631032h952.290511a8.631032 8.631032 0 0 0 8.631031-8.631032V80.556297a8.631032 8.631032 0 0 0-8.631031-8.631032z" fill="#261D50" p-id="2334"/><path d="M1090.991192 750.899768h-975.306596a69.12018 69.12018 0 0 1-69.048254-69.048254V69.048255a69.12018 69.12018 0 0 1 69.048254-69.048255h53.224697a11.508042 11.508042 0 0 1 0 23.016085h-53.224697a46.03217 46.03217 0 0 0-46.032169 46.03217v612.803259a46.03217 46.03217 0 0 0 46.032169 46.032169h975.306596a46.03217 46.03217 0 0 0 46.03217-46.032169V69.048255a46.03217 46.03217 0 0 0-46.03217-46.03217H401.386135a11.508042 11.508042 0 0 1 0-23.016085h689.605057a69.12018 69.12018 0 0 1 69.048255 69.048255v612.803259a69.12018 69.12018 0 0 1-69.048255 69.048254zM346.579083 23.016085h-101.242004a11.508042 11.508042 0 0 1 0-23.016085h101.242004a11.508042 11.508042 0 0 1 0 23.016085z" fill="#261D50" p-id="2335"/></svg>