<?xml version="1.0" standalone="no"?><!DOCTYPE svg PUBLIC "-//W3C//DTD SVG 1.1//EN" "http://www.w3.org/Graphics/SVG/1.1/DTD/svg11.dtd"><svg t="1578386270065" class="icon" viewBox="0 0 1024 1024" version="1.1" xmlns="http://www.w3.org/2000/svg" p-id="2999" xmlns:xlink="http://www.w3.org/1999/xlink" width="200" height="200"><defs><style type="text/css"></style></defs><path d="M299.008 518.144V493.056s-0.512-4.096-1.536-5.632c-1.536-2.56-5.632-5.12-5.632-5.12-3.584-3.584-8.704-5.12-11.776-6.656-35.84-14.336-56.32-50.176-56.32-86.016 0-43.008 28.672-81.92 71.68-92.672 17.92-3.584 28.672-21.504 25.088-39.424-3.584-17.92-21.504-28.672-39.424-25.088-71.68 17.92-121.344 81.92-121.344 153.6 0 39.424 14.336 78.848 43.008 107.008-83.456 44.032-136.192 130.56-135.68 225.28v50.176c0 17.92 14.336 32.256 32.256 32.256s32.256-14.336 32.256-32.256v-50.176c0-89.088 60.928-164.352 142.848-185.856 4.608-1.536 23.552-10.24 24.576-14.336zM750.08 532.48c81.92 21.504 142.848 96.256 142.848 185.856v50.176c0 17.92 14.336 32.256 32.256 32.256s32.256-14.336 32.256-32.256v-50.176c0.512-94.72-52.224-181.248-135.68-225.28 28.672-28.672 43.008-68.096 43.008-107.008 0-71.68-50.176-135.68-121.344-153.6-17.92-3.584-35.84 7.168-39.424 25.088-3.584 17.92 7.168 35.84 25.088 39.424 43.008 10.752 71.68 50.176 71.68 92.672 0 35.84-20.48 71.68-56.32 86.016-2.56 1.536-8.192 3.072-11.776 6.656 0 0-4.096 2.56-5.632 5.12-1.024 1.536-1.536 5.632-1.536 5.632v25.088c0.512 4.096 19.456 12.8 24.576 14.336z" fill="#ffffff" p-id="3000"></path><path d="M258.56 827.392V803.84c0-139.264 114.176-253.44 253.44-253.44s253.44 114.176 253.44 253.44v23.552h68.096V803.84c0-132.096-85.504-249.856-203.776-296.448 46.592-35.84 75.264-89.088 75.264-150.016 0-107.008-85.504-193.024-193.024-193.024-107.008 0-193.024 85.504-193.024 193.024 0 60.928 28.672 114.176 75.264 150.016-117.76 46.592-200.192 160.768-200.192 296.448v23.552h64.512z m128.512-470.016c0-71.68 57.344-128.512 128.512-128.512s128.512 57.344 128.512 128.512-57.344 128.512-128.512 128.512-128.512-57.344-128.512-128.512z" fill="#ffffff" p-id="3001"></path><path d="M226.304 827.392m-32.256 0a32.256 32.256 0 1 0 64.512 0 32.256 32.256 0 1 0-64.512 0Z" fill="#ffffff" p-id="3002"></path><path d="M798.208 827.392m-32.256 0a32.256 32.256 0 1 0 64.512 0 32.256 32.256 0 1 0-64.512 0Z" fill="#ffffff" p-id="3003"></path></svg>